<mxfile host="app.diagrams.net" modified="2020-10-20T10:23:37.362Z" agent="5.0 (X11; Linux x86_64) AppleWebKit/537.36 (KHTML, like Gecko) Chrome/86.0.4240.75 Safari/537.36" etag="BvR240dRH9LHx5Hngjby" version="13.8.0" type="github">
  <diagram id="7e0GtD7TXZg0hHKQMnAh" name="Page-1">
    <mxGraphModel dx="756" dy="820" grid="1" gridSize="10" guides="1" tooltips="1" connect="1" arrows="1" fold="1" page="1" pageScale="1" pageWidth="850" pageHeight="1100" math="0" shadow="0">
      <root>
        <mxCell id="0" />
        <mxCell id="1" parent="0" />
        <mxCell id="PHka3gXeUMbXcuHf-Wi0-8" value="新建" style="edgeStyle=orthogonalEdgeStyle;rounded=0;orthogonalLoop=1;jettySize=auto;html=1;" parent="1" source="PHka3gXeUMbXcuHf-Wi0-1" target="PHka3gXeUMbXcuHf-Wi0-4" edge="1">
          <mxGeometry relative="1" as="geometry" />
        </mxCell>
        <mxCell id="PHka3gXeUMbXcuHf-Wi0-1" value="" style="strokeWidth=2;html=1;shape=mxgraph.flowchart.start_2;whiteSpace=wrap;fillColor=#000000;" parent="1" vertex="1">
          <mxGeometry x="130" y="250" width="20" height="20" as="geometry" />
        </mxCell>
        <mxCell id="PHka3gXeUMbXcuHf-Wi0-2" value="" style="shape=mxgraph.bpmn.shape;html=1;verticalLabelPosition=bottom;labelBackgroundColor=#ffffff;verticalAlign=top;align=center;perimeter=ellipsePerimeter;outlineConnect=0;outline=end;symbol=terminate;fillColor=#FFFFFF;" parent="1" vertex="1">
          <mxGeometry x="130" y="370" width="20" height="20" as="geometry" />
        </mxCell>
        <mxCell id="PHka3gXeUMbXcuHf-Wi0-9" value="上架" style="edgeStyle=orthogonalEdgeStyle;rounded=0;orthogonalLoop=1;jettySize=auto;html=1;" parent="1" source="PHka3gXeUMbXcuHf-Wi0-4" target="PHka3gXeUMbXcuHf-Wi0-5" edge="1">
          <mxGeometry relative="1" as="geometry">
            <Array as="points">
              <mxPoint x="360" y="250" />
              <mxPoint x="360" y="250" />
            </Array>
          </mxGeometry>
        </mxCell>
        <mxCell id="PHka3gXeUMbXcuHf-Wi0-15" value="删除" style="edgeStyle=none;rounded=0;orthogonalLoop=1;jettySize=auto;html=1;" parent="1" source="PHka3gXeUMbXcuHf-Wi0-4" target="PHka3gXeUMbXcuHf-Wi0-7" edge="1">
          <mxGeometry relative="1" as="geometry" />
        </mxCell>
        <mxCell id="PHka3gXeUMbXcuHf-Wi0-4" value="未上架" style="rounded=1;whiteSpace=wrap;html=1;fillColor=#FFFFFF;" parent="1" vertex="1">
          <mxGeometry x="240" y="240" width="80" height="40" as="geometry" />
        </mxCell>
        <mxCell id="PHka3gXeUMbXcuHf-Wi0-10" value="下架" style="edgeStyle=orthogonalEdgeStyle;rounded=0;orthogonalLoop=1;jettySize=auto;html=1;" parent="1" source="PHka3gXeUMbXcuHf-Wi0-5" target="PHka3gXeUMbXcuHf-Wi0-4" edge="1">
          <mxGeometry relative="1" as="geometry">
            <Array as="points">
              <mxPoint x="360" y="270" />
              <mxPoint x="360" y="270" />
            </Array>
          </mxGeometry>
        </mxCell>
        <mxCell id="PHka3gXeUMbXcuHf-Wi0-11" value="售罄" style="edgeStyle=orthogonalEdgeStyle;rounded=0;orthogonalLoop=1;jettySize=auto;html=1;" parent="1" source="PHka3gXeUMbXcuHf-Wi0-5" target="PHka3gXeUMbXcuHf-Wi0-6" edge="1">
          <mxGeometry relative="1" as="geometry">
            <Array as="points">
              <mxPoint x="460" y="320" />
              <mxPoint x="460" y="320" />
            </Array>
          </mxGeometry>
        </mxCell>
        <mxCell id="n3JGltzq1K_EkZzV0CXa-3" value="参与活动" style="edgeStyle=orthogonalEdgeStyle;rounded=0;orthogonalLoop=1;jettySize=auto;html=1;" edge="1" parent="1" source="PHka3gXeUMbXcuHf-Wi0-5" target="n3JGltzq1K_EkZzV0CXa-2">
          <mxGeometry relative="1" as="geometry">
            <Array as="points">
              <mxPoint x="520" y="250" />
              <mxPoint x="520" y="250" />
            </Array>
          </mxGeometry>
        </mxCell>
        <mxCell id="PHka3gXeUMbXcuHf-Wi0-5" value="已上架" style="rounded=1;whiteSpace=wrap;html=1;fillColor=#FFFFFF;" parent="1" vertex="1">
          <mxGeometry x="400" y="240" width="80" height="40" as="geometry" />
        </mxCell>
        <mxCell id="PHka3gXeUMbXcuHf-Wi0-12" value="补货" style="edgeStyle=orthogonalEdgeStyle;rounded=0;orthogonalLoop=1;jettySize=auto;html=1;" parent="1" source="PHka3gXeUMbXcuHf-Wi0-6" target="PHka3gXeUMbXcuHf-Wi0-5" edge="1">
          <mxGeometry relative="1" as="geometry">
            <Array as="points">
              <mxPoint x="420" y="320" />
              <mxPoint x="420" y="320" />
            </Array>
          </mxGeometry>
        </mxCell>
        <mxCell id="PHka3gXeUMbXcuHf-Wi0-14" value="下架" style="rounded=0;orthogonalLoop=1;jettySize=auto;html=1;exitX=0;exitY=0;exitDx=0;exitDy=0;entryX=1;entryY=1;entryDx=0;entryDy=0;" parent="1" source="PHka3gXeUMbXcuHf-Wi0-6" target="PHka3gXeUMbXcuHf-Wi0-4" edge="1">
          <mxGeometry relative="1" as="geometry">
            <mxPoint x="380" y="370" as="sourcePoint" />
          </mxGeometry>
        </mxCell>
        <mxCell id="PHka3gXeUMbXcuHf-Wi0-6" value="已售罄" style="rounded=1;whiteSpace=wrap;html=1;fillColor=#FFFFFF;" parent="1" vertex="1">
          <mxGeometry x="400" y="360" width="80" height="40" as="geometry" />
        </mxCell>
        <mxCell id="PHka3gXeUMbXcuHf-Wi0-16" style="edgeStyle=none;rounded=0;orthogonalLoop=1;jettySize=auto;html=1;" parent="1" source="PHka3gXeUMbXcuHf-Wi0-7" target="PHka3gXeUMbXcuHf-Wi0-2" edge="1">
          <mxGeometry relative="1" as="geometry" />
        </mxCell>
        <mxCell id="PHka3gXeUMbXcuHf-Wi0-7" value="已删除" style="rounded=1;whiteSpace=wrap;html=1;fillColor=#FFFFFF;" parent="1" vertex="1">
          <mxGeometry x="240" y="360" width="80" height="40" as="geometry" />
        </mxCell>
        <mxCell id="n3JGltzq1K_EkZzV0CXa-1" value="" style="shape=note;whiteSpace=wrap;html=1;backgroundOutline=1;darkOpacity=0.05;align=left;" vertex="1" parent="1">
          <mxGeometry x="185" y="50" width="190" height="110" as="geometry" />
        </mxCell>
        <mxCell id="n3JGltzq1K_EkZzV0CXa-4" value="停止活动" style="edgeStyle=orthogonalEdgeStyle;rounded=0;orthogonalLoop=1;jettySize=auto;html=1;" edge="1" parent="1" source="n3JGltzq1K_EkZzV0CXa-2" target="PHka3gXeUMbXcuHf-Wi0-5">
          <mxGeometry relative="1" as="geometry">
            <Array as="points">
              <mxPoint x="520" y="270" />
              <mxPoint x="520" y="270" />
            </Array>
          </mxGeometry>
        </mxCell>
        <mxCell id="n3JGltzq1K_EkZzV0CXa-2" value="活动中" style="rounded=1;whiteSpace=wrap;html=1;" vertex="1" parent="1">
          <mxGeometry x="560" y="240" width="80" height="40" as="geometry" />
        </mxCell>
      </root>
    </mxGraphModel>
  </diagram>
</mxfile>
